# 3ds Max Wavefront OBJ Exporter v0.97b - (c)2007 guruware
# File Created: 26.06.2016 07:42:42

mtllib wall_01.mtl

#
# object Plane001
#

v  -0.0000 0.0000 92.9443
v  -0.0000 -0.0000 654.3721
v  -0.0000 212.9661 654.3721
v  0.0000 212.9661 92.9443
v  -0.0000 276.9890 654.3721
v  0.0000 276.9890 92.9443
v  0.0000 276.9890 -92.9443
v  0.0000 212.9661 -92.9443
v  0.0001 0.0001 -2202.6807
v  -0.0000 0.0000 -92.9443
v  0.0001 212.9662 -2202.6807
v  0.0001 276.9890 -2202.6807
# 12 vertices

vn -1.0000 0.0000 -0.0000
# 1 vertex normals

vt 16.0358 0.0100 0.0000
vt 22.2901 0.0100 0.0000
vt 22.2901 0.7550 0.0000
vt 16.0358 0.7550 0.0000
vt 22.2901 0.9790 0.0000
vt 16.0358 0.9790 0.0000
vt 13.9649 0.9790 0.0000
vt 13.9649 0.7550 0.0000
vt -9.5378 0.0100 0.0000
vt 13.9649 0.0100 0.0000
vt -9.5378 0.7550 0.0000
vt -9.5378 0.9790 0.0000
# 12 texture coords

g Plane001
usemtl Material__25
s 1
f 1/1/1 2/2/1 3/3/1 4/4/1 
f 3/3/1 5/5/1 6/6/1 4/4/1 
f 4/4/1 6/6/1 7/7/1 8/8/1 
f 9/9/1 10/10/1 8/8/1 11/11/1 
f 8/8/1 7/7/1 12/12/1 11/11/1 
# 5 polygons

